<?xml version="1.0"?>
<svg version="1.1" xmlns="http://www.w3.org/2000/svg" xmlns:xlink="http://www.w3.org/1999/xlink" width="512" height="512" style="background: white">
    <desc iVinci="yes" version="4.6" gridStep="20" showGrid="no" snapToGrid="no" codePlatform="0"/>
    <g id="Layer1" name="Layer 1" opacity="1">
        <g id="Shape1">
            <desc shapeID="1" type="0" basicInfo-basicType="0" basicInfo-roundedRectRadius="12" basicInfo-polygonSides="6" basicInfo-starPoints="5" bounding="rect(-192,-160,384,320)" text="" font-familyName="" font-pixelSize="20" font-bold="0" font-underline="0" font-alignment="1" strokeStyle="0" markerStart="0" markerEnd="0" shadowEnabled="0" shadowOffsetX="0" shadowOffsetY="2" shadowBlur="4" shadowOpacity="160" blurEnabled="0" blurRadius="4" transform="matrix(1,0,0,1.15625,256,256)" pers-center="0,0" pers-size="0,0" pers-start="0,0" pers-end="0,0" locked="0" mesh="" flag=""/>
            <path id="shapePath1" d="M403.208,95.6663 C398.937,80.864 387.208,71 373.333,71 L138.667,71 C124.792,71 113.063,80.864 108.792,95.6663 L64,231.334 L64,416.334 C64,429.895 73.604,441 85.333,441 L106.667,441 C118.396,441 128,429.895 128,416.334 L128,404 L384,404 L384,416.334 C384,429.895 393.604,441 405.333,441 L426.667,441 C438.396,441 448,429.895 448,416.334 L448,231.334 L403.208,95.6663 M316.25,202.056 C339.43,202.056 358.288,180.256 358.288,153.454 C358.288,126.653 339.43,104.853 316.25,104.853 C293.07,104.853 274.212,126.653 274.212,153.454 C274.212,153.768 274.216,154.081 274.22,154.395 L206.673,194.21 C199.477,188.067 190.738,184.717 181.759,184.717 C158.575,184.717 139.712,206.522 139.712,233.324 C139.712,260.125 158.575,281.931 181.759,281.931 C189.869,281.931 197.664,279.263 204.462,274.181 L274.212,315.301 C274.539,341.783 293.271,363.21 316.245,363.21 C339.425,363.21 358.284,341.404 358.284,314.598 C358.284,287.802 339.425,266.002 316.245,266.002 C306.825,266.002 297.737,269.669 290.339,276.388 L223.64,237.063 C223.736,235.764 223.788,234.526 223.788,233.329 C223.788,233.072 223.788,232.814 223.784,232.561 L291.44,192.669 C298.624,198.742 307.323,202.056 316.25,202.056 M217.274,225.054 C215.692,225.983 214.757,227.929 214.905,229.974 C214.984,231.081 215.054,232.192 215.054,233.329 C215.054,235.108 214.914,236.967 214.617,239.189 C214.329,241.347 215.268,243.473 216.95,244.458 L288.958,286.912 C290.566,287.867 292.537,287.563 293.883,286.149 C300.044,279.672 307.983,276.106 316.245,276.106 C334.606,276.106 349.545,293.373 349.545,314.598 C349.545,335.832 334.606,353.105 316.245,353.105 C297.885,353.105 282.946,335.832 282.946,314.598 C282.946,314.188 282.972,313.785 282.999,313.386 L283.042,312.521 C283.13,310.531 282.199,308.666 280.665,307.762 L206.11,263.808 C205.485,263.439 204.803,263.258 204.126,263.258 C203.208,263.258 202.295,263.591 201.526,264.249 C195.737,269.204 188.899,271.827 181.763,271.827 C163.399,271.827 148.455,254.554 148.455,233.324 C148.455,212.095 163.399,194.822 181.763,194.822 C189.65,194.822 197.31,198.09 203.326,204.027 C204.668,205.355 206.573,205.613 208.146,204.683 L280.74,161.887 C282.326,160.952 283.265,158.996 283.108,156.945 C283.02,155.789 282.95,154.627 282.95,153.45 C282.95,132.22 297.89,114.953 316.25,114.953 C334.61,114.953 349.549,132.22 349.549,153.45 C349.549,174.679 334.61,191.947 316.25,191.947 C308.402,191.947 300.773,188.709 294.765,182.833 C293.415,181.519 291.523,181.257 289.959,182.191 L217.274,225.054 Z" style="stroke:none;fill-rule:evenodd;fill:#2cb7ef;fill-opacity:1;"/>
        </g>
    </g>
</svg>
