<?xml version="1.0"?>
<svg version="1.1" xmlns="http://www.w3.org/2000/svg" xmlns:xlink="http://www.w3.org/1999/xlink" width="17" height="17">
    <desc iVinci="yes" version="4.6" gridStep="20" showGrid="no" snapToGrid="no" codePlatform="0"/>
    <g id="Layer1" name="Layer 1" opacity="1">
        <g id="Shape1">
            <desc shapeID="1" type="0" basicInfo-basicType="0" basicInfo-roundedRectRadius="12" basicInfo-polygonSides="6" basicInfo-starPoints="5" bounding="rect(-8.0005,-5.99082,16.001,11.9816)" text="" font-familyName="" font-pixelSize="20" font-bold="0" font-underline="0" font-alignment="1" strokeStyle="0" markerStart="0" markerEnd="0" shadowEnabled="0" shadowOffsetX="0" shadowOffsetY="2" shadowBlur="4" shadowOpacity="160" blurEnabled="0" blurRadius="4" transform="matrix(1.04471,0,0,1.04471,8.52321,8.27703)" pers-center="0,0" pers-size="0,0" pers-start="0,0" pers-end="0,0" locked="0" mesh="" flag=""/>
            <path id="shapePath1" d="M16.8814,6.52277 C16.8814,5.97117 14.9675,5.5303 14.8651,5.54179 C13.8152,3.54744 11.5158,2.16946 8.8455,2.03365 C6.71638,1.925 5.27677,2.40766 4.26235,3.07836 C3.89253,3.02822 3.51748,3.01359 3.12989,3.07941 C2.63887,3.16403 2.28472,3.34894 1.89713,3.68638 C1.67461,3.87966 1.28075,4.29232 1.6558,4.50857 C1.92638,4.66528 2.3171,4.39574 2.60544,4.37903 C2.68797,4.37276 2.76424,4.38843 2.8405,4.40201 C2.11234,5.34956 1.83445,6.21876 1.51999,6.21876 C0.179625,6.21876 0.164999,6.97409 0.164999,7.58315 L0.164999,8.97575 C0.164999,9.37379 0.667504,10.3193 0.864955,10.5428 C1.9525,11.7766 2.57306,12.6918 4.37518,13.2935 C4.40652,13.9862 4.85888,14.5357 5.41676,14.5357 C5.85345,14.5357 6.64847,13.4503 7.74124,13.4503 C10.353,13.4503 11.2609,14.5357 11.708,14.5357 C12.877,14.5357 12.7485,13.1212 12.7444,13.071 C14.7889,12.09 15.4752,10.1908 15.4752,7.97388 C15.4752,7.81717 15.4617,7.6636 15.4491,7.51003 C16.2609,7.43063 16.8814,7.02319 16.8814,6.52277 M4.30205,7.22273 C3.72409,7.22273 3.25734,6.75411 3.25734,6.17844 C3.25734,5.60109 3.72493,5.13331 4.30205,5.13331 C4.87833,5.13331 5.34676,5.60193 5.34676,6.17844 C5.34676,6.75411 4.87833,7.22273 4.30205,7.22273 M11.9012,4.84718 C11.4501,4.44374 10.7384,4.2455 10.0392,4.05025 C9.33886,3.856 8.75905,3.69362 8.15761,3.80519 C7.38109,3.95063 7.12774,3.58006 7.74875,3.33898 C8.46451,3.06105 9.42537,2.92059 10.3698,3.18358 C11.2678,3.43262 11.9763,4.0104 12.4357,4.57423 C12.8764,5.11814 12.4789,5.36818 11.9012,4.84718 Z" style="stroke:none;fill-rule:evenodd;fill:#000000;fill-opacity:1;"/>
        </g>
    </g>
</svg>
